<svg width="250" height="50" viewBox="0 0 250 50" fill="none" xmlns="http://www.w3.org/2000/svg">
<path fill-rule="evenodd" clip-rule="evenodd" d="M17.7418 9.56158L17.7417 9.6V16.1291H21.8709C28.4983 16.1291 33.8709 21.5017 33.8709 28.1291V32.2581H40.3998C45.7017 32.2581 49.9998 27.96 49.9998 22.6581V10.215L36.5593 10.215V12.3655C36.5593 13.5532 35.5965 14.5161 34.4088 14.5161C33.2211 14.5161 32.2582 13.5532 32.2582 12.3655V10.215L17.7418 10.215V9.56158ZM26.3441 8.06446H40.86V0.0108376C40.7075 0.00363959 40.554 0 40.3998 0H27.3417C27.0048 0 26.672 0.0173506 26.3441 0.0512069V8.06446ZM49.8776 8.06446H43.0105V0.35927C46.5643 1.3613 49.2818 4.35816 49.8776 8.06446ZM24.1936 8.06446V0.528092C20.9053 1.66902 18.4293 4.5473 17.8638 8.06446H24.1936Z" fill="#30CDA6"/>
<path fill-rule="evenodd" clip-rule="evenodd" d="M6.45161 18.2699C3.16348 19.4109 0.687524 22.2891 0.122136 25.8062H6.45161V18.2699ZM8.60215 17.7929V25.8062H23.1183V17.7525C22.9658 17.7453 22.8123 17.7417 22.6581 17.7417H9.6C9.26305 17.7417 8.93015 17.7591 8.60215 17.7929ZM25.2688 18.101V25.8062H32.1359C31.5401 22.0999 28.8226 19.103 25.2688 18.101ZM32.2581 27.9568H18.8172V30.1073C18.8172 31.295 17.8544 32.2578 16.6667 32.2578C15.479 32.2578 14.5161 31.295 14.5161 30.1073V27.9568H0V40.3998C0 45.7017 4.29807 49.9998 9.6 49.9998H22.6581C27.96 49.9998 32.2581 45.7017 32.2581 40.3998V27.9568Z" fill="#EDB81A"/>
<path d="M59.517 33.5V16.0455H63.2074V30.4574H70.6903V33.5H59.517ZM88.4943 24.7727C88.4943 26.6761 88.1335 28.2955 87.4119 29.6307C86.696 30.9659 85.7188 31.9858 84.4801 32.6903C83.2472 33.3892 81.8608 33.7386 80.321 33.7386C78.7699 33.7386 77.3778 33.3864 76.1449 32.6818C74.9119 31.9773 73.9375 30.9574 73.2216 29.6222C72.5057 28.2869 72.1477 26.6705 72.1477 24.7727C72.1477 22.8693 72.5057 21.25 73.2216 19.9148C73.9375 18.5795 74.9119 17.5625 76.1449 16.8636C77.3778 16.1591 78.7699 15.8068 80.321 15.8068C81.8608 15.8068 83.2472 16.1591 84.4801 16.8636C85.7188 17.5625 86.696 18.5795 87.4119 19.9148C88.1335 21.25 88.4943 22.8693 88.4943 24.7727ZM84.7528 24.7727C84.7528 23.5398 84.5682 22.5 84.1989 21.6534C83.8352 20.8068 83.321 20.1648 82.6562 19.7273C81.9915 19.2898 81.2131 19.071 80.321 19.071C79.429 19.071 78.6506 19.2898 77.9858 19.7273C77.321 20.1648 76.804 20.8068 76.4347 21.6534C76.071 22.5 75.8892 23.5398 75.8892 24.7727C75.8892 26.0057 76.071 27.0455 76.4347 27.892C76.804 28.7386 77.321 29.3807 77.9858 29.8182C78.6506 30.2557 79.429 30.4744 80.321 30.4744C81.2131 30.4744 81.9915 30.2557 82.6562 29.8182C83.321 29.3807 83.8352 28.7386 84.1989 27.892C84.5682 27.0455 84.7528 26.0057 84.7528 24.7727ZM107.268 24.7727C107.268 26.6761 106.907 28.2955 106.185 29.6307C105.469 30.9659 104.492 31.9858 103.254 32.6903C102.021 33.3892 100.634 33.7386 99.0945 33.7386C97.5433 33.7386 96.1513 33.3864 94.9183 32.6818C93.6854 31.9773 92.7109 30.9574 91.995 29.6222C91.2791 28.2869 90.9212 26.6705 90.9212 24.7727C90.9212 22.8693 91.2791 21.25 91.995 19.9148C92.7109 18.5795 93.6854 17.5625 94.9183 16.8636C96.1513 16.1591 97.5433 15.8068 99.0945 15.8068C100.634 15.8068 102.021 16.1591 103.254 16.8636C104.492 17.5625 105.469 18.5795 106.185 19.9148C106.907 21.25 107.268 22.8693 107.268 24.7727ZM103.526 24.7727C103.526 23.5398 103.342 22.5 102.972 21.6534C102.609 20.8068 102.094 20.1648 101.43 19.7273C100.765 19.2898 99.9865 19.071 99.0945 19.071C98.2024 19.071 97.424 19.2898 96.7592 19.7273C96.0945 20.1648 95.5774 20.8068 95.2081 21.6534C94.8445 22.5 94.6626 23.5398 94.6626 24.7727C94.6626 26.0057 94.8445 27.0455 95.2081 27.892C95.5774 28.7386 96.0945 29.3807 96.7592 29.8182C97.424 30.2557 98.2024 30.4744 99.0945 30.4744C99.9865 30.4744 100.765 30.2557 101.43 29.8182C102.094 29.3807 102.609 28.7386 102.972 27.892C103.342 27.0455 103.526 26.0057 103.526 24.7727ZM108.54 19.0881V16.0455H122.875V19.0881H117.531V33.5H113.884V19.0881H108.54ZM125.236 33.5V16.0455H132.224C133.509 16.0455 134.58 16.2358 135.438 16.6165C136.295 16.9972 136.94 17.5256 137.372 18.2017C137.804 18.8722 138.02 19.6449 138.02 20.5199C138.02 21.2017 137.884 21.8011 137.611 22.3182C137.338 22.8295 136.963 23.25 136.486 23.5795C136.014 23.9034 135.474 24.1335 134.866 24.2699V24.4403C135.531 24.4687 136.153 24.6562 136.733 25.0028C137.318 25.3494 137.793 25.8352 138.156 26.4602C138.52 27.0795 138.702 27.8182 138.702 28.6761C138.702 29.6023 138.472 30.429 138.011 31.1562C137.557 31.8778 136.884 32.4489 135.991 32.8693C135.099 33.2898 134 33.5 132.693 33.5H125.236ZM128.926 30.483H131.935C132.963 30.483 133.713 30.2869 134.185 29.8949C134.656 29.4972 134.892 28.9687 134.892 28.3097C134.892 27.8267 134.776 27.4006 134.543 27.0312C134.31 26.6619 133.977 26.3722 133.545 26.1619C133.119 25.9517 132.611 25.8466 132.02 25.8466H128.926V30.483ZM128.926 23.3494H131.662C132.168 23.3494 132.616 23.2614 133.009 23.0852C133.406 22.9034 133.719 22.6477 133.946 22.3182C134.179 21.9886 134.295 21.5938 134.295 21.1335C134.295 20.5028 134.071 19.9943 133.622 19.608C133.179 19.2216 132.548 19.0284 131.73 19.0284H128.926V23.3494ZM157.143 24.7727C157.143 26.6761 156.782 28.2955 156.06 29.6307C155.344 30.9659 154.367 31.9858 153.129 32.6903C151.896 33.3892 150.509 33.7386 148.969 33.7386C147.418 33.7386 146.026 33.3864 144.793 32.6818C143.56 31.9773 142.586 30.9574 141.87 29.6222C141.154 28.2869 140.796 26.6705 140.796 24.7727C140.796 22.8693 141.154 21.25 141.87 19.9148C142.586 18.5795 143.56 17.5625 144.793 16.8636C146.026 16.1591 147.418 15.8068 148.969 15.8068C150.509 15.8068 151.896 16.1591 153.129 16.8636C154.367 17.5625 155.344 18.5795 156.06 19.9148C156.782 21.25 157.143 22.8693 157.143 24.7727ZM153.401 24.7727C153.401 23.5398 153.217 22.5 152.847 21.6534C152.484 20.8068 151.969 20.1648 151.305 19.7273C150.64 19.2898 149.862 19.071 148.969 19.071C148.077 19.071 147.299 19.2898 146.634 19.7273C145.969 20.1648 145.452 20.8068 145.083 21.6534C144.719 22.5 144.538 23.5398 144.538 24.7727C144.538 26.0057 144.719 27.0455 145.083 27.892C145.452 28.7386 145.969 29.3807 146.634 29.8182C147.299 30.2557 148.077 30.4744 148.969 30.4744C149.862 30.4744 150.64 30.2557 151.305 29.8182C151.969 29.3807 152.484 28.7386 152.847 27.892C153.217 27.0455 153.401 26.0057 153.401 24.7727ZM162.516 16.0455L166.036 21.9943H166.173L169.71 16.0455H173.877L168.55 24.7727L173.996 33.5H169.752L166.173 27.5426H166.036L162.457 33.5H158.229L163.692 24.7727L158.332 16.0455H162.516ZM181.767 33.5V16.0455H185.457V23.7415H185.688L191.969 16.0455H196.392L189.915 23.8608L196.469 33.5H192.054L187.273 26.3239L185.457 28.5398V33.5H181.767ZM202.004 16.0455V33.5H198.314V16.0455H202.004ZM205.04 33.5V16.0455H208.731V30.4574H216.214V33.5H205.04ZM218.658 33.5V16.0455H222.348V30.4574H229.831V33.5H218.658ZM235.729 33.5H231.774L237.8 16.0455H242.555L248.572 33.5H244.618L240.246 20.0341H240.109L235.729 33.5ZM235.482 26.6392H244.822V29.5199H235.482V26.6392Z" fill="white"/>
</svg>
